<svg width="15" height="22" viewBox="0 0 15 22" fill="none" xmlns="http://www.w3.org/2000/svg">
<path d="M9.23077 21.7219H4.61538C4.30937 21.7219 4.01588 21.608 3.79949 21.4052C3.5831 21.2024 3.46154 20.9274 3.46154 20.6406V13.9363H1.15385C0.847827 13.9363 0.554342 13.8224 0.337954 13.6196C0.121566 13.4168 0 13.1418 0 12.855V8.96223C0 8.67544 0.121566 8.4004 0.337954 8.19761C0.554342 7.99482 0.847827 7.8809 1.15385 7.8809H3.46154V6.04264C3.54242 4.39507 4.3161 2.84454 5.61343 1.73006C6.91076 0.615583 8.62618 0.0278324 10.3846 0.0953186H13.8462C14.1522 0.0953186 14.4457 0.209244 14.662 0.412033C14.8784 0.614822 15 0.889862 15 1.17665V5.06944C15 5.35622 14.8784 5.63127 14.662 5.83405C14.4457 6.03684 14.1522 6.15077 13.8462 6.15077H10.3846V7.8809H13.8462C14.0243 7.87963 14.2004 7.91705 14.3605 7.99021C14.5207 8.06338 14.6606 8.17031 14.7692 8.30262C14.8767 8.43691 14.9493 8.59282 14.9814 8.75798C15.0134 8.92314 15.004 9.09303 14.9538 9.25419L13.8 13.147C13.7302 13.3809 13.5784 13.5859 13.3691 13.7291C13.1598 13.8723 12.9051 13.9453 12.6462 13.9363H10.3846V20.6406C10.3846 20.9274 10.263 21.2024 10.0467 21.4052C9.83027 21.608 9.53679 21.7219 9.23077 21.7219ZM5.76923 19.5593H8.07692V12.855C8.07692 12.5682 8.19849 12.2932 8.41488 12.0904C8.63126 11.8876 8.92475 11.7737 9.23077 11.7737H11.8154L12.3231 10.0436H9.23077C8.92475 10.0436 8.63126 9.92963 8.41488 9.72684C8.19849 9.52405 8.07692 9.24901 8.07692 8.96223V6.04264C8.10655 5.48801 8.3627 4.96532 8.79231 4.58284C9.22191 4.20036 9.79205 3.98741 10.3846 3.98811H12.6923V2.25798H10.3846C9.23863 2.19255 8.11133 2.55322 7.24729 3.26174C6.38324 3.97026 5.85215 4.96949 5.76923 6.04264V8.96223C5.76923 9.24901 5.64767 9.52405 5.43128 9.72684C5.21489 9.92963 4.9214 10.0436 4.61538 10.0436H2.30769V11.7737H4.61538C4.9214 11.7737 5.21489 11.8876 5.43128 12.0904C5.64767 12.2932 5.76923 12.5682 5.76923 12.855V19.5593Z" fill="#E83D81"/>
</svg>
