<svg width="22" height="22" viewBox="0 0 22 22" fill="none" xmlns="http://www.w3.org/2000/svg">
<path d="M16.874 3.8324C16.6129 3.8324 16.3577 3.90852 16.1406 4.05113C15.9236 4.19375 15.7544 4.39645 15.6545 4.63362C15.5546 4.87078 15.5284 5.13175 15.5794 5.38352C15.6303 5.63529 15.756 5.86655 15.9406 6.04807C16.1252 6.22958 16.3604 6.3532 16.6165 6.40328C16.8725 6.45336 17.1379 6.42765 17.3791 6.32942C17.6203 6.23118 17.8265 6.06483 17.9715 5.85139C18.1166 5.63795 18.194 5.38701 18.194 5.13031C18.194 4.78608 18.0549 4.45595 17.8074 4.21254C17.5598 3.96914 17.2241 3.8324 16.874 3.8324ZM21.934 6.44985C21.9126 5.55245 21.7417 4.66458 21.428 3.82158C21.1483 3.1003 20.713 2.44718 20.152 1.90716C19.6073 1.35277 18.9415 0.927431 18.205 0.663332C17.3499 0.345517 16.4459 0.173598 15.532 0.154983C14.366 0.0900878 13.992 0.0900879 11 0.0900879C8.008 0.0900879 7.634 0.0900878 6.468 0.154983C5.55407 0.173598 4.65008 0.345517 3.795 0.663332C3.05984 0.930105 2.39463 1.35508 1.848 1.90716C1.28417 2.44274 0.851594 3.09739 0.583 3.82158C0.259777 4.66235 0.084931 5.55121 0.0659999 6.44985C-6.14673e-08 7.59633 0 7.96408 0 10.906C0 13.8479 -6.14673e-08 14.2157 0.0659999 15.3622C0.084931 16.2608 0.259777 17.1497 0.583 17.9904C0.851594 18.7146 1.28417 19.3693 1.848 19.9049C2.39463 20.4569 3.05984 20.8819 3.795 21.1487C4.65008 21.4665 5.55407 21.6384 6.468 21.657C7.634 21.7219 8.008 21.7219 11 21.7219C13.992 21.7219 14.366 21.7219 15.532 21.657C16.4459 21.6384 17.3499 21.4665 18.205 21.1487C18.9415 20.8846 19.6073 20.4592 20.152 19.9049C20.7155 19.3668 21.1512 18.7131 21.428 17.9904C21.7417 17.1474 21.9126 16.2596 21.934 15.3622C21.934 14.2157 22 13.8479 22 10.906C22 7.96408 22 7.59633 21.934 6.44985ZM19.954 15.2324C19.946 15.9189 19.8195 16.5992 19.58 17.2441C19.4044 17.7148 19.1223 18.1402 18.755 18.488C18.3982 18.8454 17.9665 19.1222 17.49 19.2992C16.8341 19.5347 16.1423 19.659 15.444 19.6669C14.344 19.721 13.937 19.7318 11.044 19.7318C8.151 19.7318 7.744 19.7318 6.644 19.6669C5.91898 19.6802 5.19705 19.5705 4.51 19.3424C4.05436 19.1565 3.64249 18.8804 3.3 18.5312C2.9349 18.1838 2.65633 17.7581 2.486 17.2874C2.21744 16.6332 2.06849 15.9375 2.046 15.2324C2.046 14.1508 1.98 13.7506 1.98 10.906C1.98 8.06142 1.98 7.66123 2.046 6.57964C2.05093 5.87775 2.18125 5.18216 2.431 4.52461C2.62465 4.06809 2.92189 3.66113 3.3 3.33486C3.63419 2.96298 4.04722 2.66762 4.51 2.46959C5.18051 2.23169 5.8872 2.10734 6.6 2.10185C7.7 2.10185 8.107 2.03695 11 2.03695C13.893 2.03695 14.3 2.03695 15.4 2.10185C16.0982 2.10972 16.7901 2.23407 17.446 2.46959C17.9459 2.652 18.3945 2.94857 18.755 3.33486C19.1155 3.6671 19.3971 4.0733 19.58 4.52461C19.8245 5.18323 19.951 5.87853 19.954 6.57964C20.009 7.66123 20.02 8.06142 20.02 10.906C20.02 13.7506 20.009 14.1508 19.954 15.2324ZM11 5.35744C9.88439 5.35958 8.79446 5.68681 7.86792 6.2978C6.94138 6.90878 6.21982 7.77609 5.7944 8.79015C5.36898 9.8042 5.2588 10.9195 5.47777 11.9951C5.69675 13.0707 6.23506 14.0583 7.02468 14.8332C7.81431 15.6081 8.81981 16.1355 9.91415 16.3487C11.0085 16.562 12.1425 16.4514 13.173 16.0312C14.2035 15.6109 15.0842 14.8997 15.7037 13.9875C16.3233 13.0753 16.654 12.0029 16.654 10.906C16.6555 10.176 16.5101 9.453 16.2264 8.77847C15.9426 8.10393 15.526 7.49121 15.0006 6.97556C14.4751 6.4599 13.8511 6.05147 13.1646 5.77378C12.478 5.49608 11.7424 5.35459 11 5.35744ZM11 14.5077C10.2755 14.5077 9.56732 14.2965 8.96495 13.9007C8.36257 13.505 7.89307 12.9424 7.61583 12.2843C7.33859 11.6262 7.26605 10.902 7.40738 10.2033C7.54872 9.50469 7.89759 8.86293 8.40987 8.35922C8.92215 7.85551 9.57483 7.51248 10.2854 7.37351C10.9959 7.23454 11.7324 7.30586 12.4018 7.57847C13.0711 7.85107 13.6432 8.31271 14.0457 8.90501C14.4482 9.4973 14.663 10.1937 14.663 10.906C14.663 11.379 14.5683 11.8473 14.3842 12.2843C14.2001 12.7213 13.9303 13.1183 13.5901 13.4528C13.25 13.7872 12.8462 14.0525 12.4018 14.2335C11.9574 14.4145 11.481 14.5077 11 14.5077Z" fill="#E83D81"/>
</svg>
